<svg width="306" height="270" viewBox="0 0 306 270" fill="none" xmlns="http://www.w3.org/2000/svg">
<path d="M201.305 0H112.386C98.5567 0 87.3457 11.1554 87.3457 24.9162V227.096C87.3457 240.856 98.5567 252.012 112.386 252.012H201.305C215.134 252.012 226.345 240.856 226.345 227.096V24.9162C226.345 11.1554 215.134 0 201.305 0Z" fill="#CCCCCC"/>
<path d="M224.001 24.9175V227.095C223.994 233.083 221.601 238.823 217.346 243.057C213.091 247.29 207.322 249.672 201.305 249.679H112.388C106.37 249.672 100.602 247.29 96.3467 243.057C92.0918 238.823 89.6984 233.083 89.6914 227.095V24.9175C89.6984 18.9301 92.0918 13.1899 96.3467 8.95619C100.602 4.72247 106.37 2.34092 112.388 2.33398H124.015V6.33054C124.015 8.13985 124.737 9.87502 126.023 11.1544C127.309 12.4338 129.053 13.1526 130.871 13.1527H182.821C184.64 13.1526 186.383 12.4338 187.669 11.1544C188.955 9.87502 189.677 8.13985 189.677 6.33054V2.33398H201.305C207.322 2.34092 213.091 4.72247 217.346 8.95619C221.601 13.1899 223.994 18.9301 224.001 24.9175Z" fill="white"/>
<path d="M86.7065 51.1232C86.2543 51.1226 85.8208 50.9437 85.5011 50.6255C85.1813 50.3074 85.0015 49.876 85.001 49.4261V46.032C85.001 45.5819 85.1807 45.1503 85.5005 44.832C85.8204 44.5138 86.2542 44.335 86.7065 44.335C87.1588 44.335 87.5926 44.5138 87.9125 44.832C88.2323 45.1503 88.412 45.5819 88.412 46.032V49.4261C88.4115 49.876 88.2316 50.3074 87.9119 50.6255C87.5922 50.9437 87.1587 51.1226 86.7065 51.1232Z" fill="#CCCCCC"/>
<path d="M86.7065 68.527C86.2543 68.5265 85.8208 68.3475 85.5011 68.0294C85.1813 67.7113 85.0015 67.2799 85.001 66.83V57.4871C85.001 57.037 85.1807 56.6054 85.5005 56.2871C85.8204 55.9688 86.2542 55.79 86.7065 55.79C87.1588 55.79 87.5926 55.9688 87.9125 56.2871C88.2323 56.6054 88.412 57.037 88.412 57.4871V66.83C88.4115 67.2799 88.2316 67.7113 87.9119 68.0294C87.5922 68.3475 87.1587 68.5265 86.7065 68.527Z" fill="#CCCCCC"/>
<path d="M86.7065 82.5192C86.2543 82.5187 85.8208 82.3397 85.5011 82.0216C85.1813 81.7034 85.0015 81.2721 85.001 80.8222V71.4793C85.001 71.0292 85.1807 70.5975 85.5005 70.2793C85.8204 69.961 86.2542 69.7822 86.7065 69.7822C87.1588 69.7822 87.5926 69.961 87.9125 70.2793C88.2323 70.5975 88.412 71.0292 88.412 71.4793V80.8222C88.4115 81.2721 88.2316 81.7034 87.9119 82.0216C87.5922 82.3397 87.1587 82.5187 86.7065 82.5192Z" fill="#CCCCCC"/>
<path d="M226.559 74.8826C226.107 74.882 225.673 74.7031 225.354 74.3849C225.034 74.0668 224.854 73.6354 224.854 73.1855V50.3885C224.854 49.9384 225.033 49.5067 225.353 49.1885C225.673 48.8702 226.107 48.6914 226.559 48.6914C227.011 48.6914 227.445 48.8702 227.765 49.1885C228.085 49.5067 228.265 49.9384 228.265 50.3885V73.1855C228.264 73.6354 228.084 74.0668 227.764 74.3849C227.445 74.7031 227.011 74.882 226.559 74.8826Z" fill="#CCCCCC"/>
<path d="M160.509 7.78342H147.292C147.009 7.78342 146.738 7.67167 146.538 7.47276C146.338 7.27385 146.226 7.00407 146.226 6.72277C146.226 6.44146 146.338 6.17168 146.538 5.97277C146.738 5.77386 147.009 5.66211 147.292 5.66211H160.509C160.792 5.66211 161.063 5.77386 161.263 5.97277C161.463 6.17168 161.575 6.44146 161.575 6.72277C161.575 7.00407 161.463 7.27385 161.263 7.47276C161.063 7.67167 160.792 7.78342 160.509 7.78342Z" fill="white"/>
<path d="M167.332 7.57107C167.803 7.57107 168.185 7.19118 168.185 6.72255C168.185 6.25392 167.803 5.87402 167.332 5.87402C166.861 5.87402 166.479 6.25392 166.479 6.72255C166.479 7.19118 166.861 7.57107 167.332 7.57107Z" fill="white"/>
<path d="M118.935 12.3344H107.422C106.857 12.3344 106.315 12.1109 105.915 11.7131C105.515 11.3153 105.291 10.7757 105.291 10.2131C105.291 9.6505 105.515 9.11094 105.915 8.71311C106.315 8.31529 106.857 8.0918 107.422 8.0918H118.935C119.5 8.0918 120.042 8.31529 120.442 8.71311C120.842 9.11094 121.067 9.6505 121.067 10.2131C121.067 10.7757 120.842 11.3153 120.442 11.7131C120.042 12.1109 119.5 12.3344 118.935 12.3344Z" fill="#E6E6E6"/>
<path d="M194.404 12.1221C195.464 12.1221 196.323 11.2673 196.323 10.2129C196.323 9.15848 195.464 8.30371 194.404 8.30371C193.344 8.30371 192.485 9.15848 192.485 10.2129C192.485 11.2673 193.344 12.1221 194.404 12.1221Z" fill="#E6E6E6"/>
<path d="M200.373 12.1221C201.433 12.1221 202.292 11.2673 202.292 10.2129C202.292 9.15848 201.433 8.30371 200.373 8.30371C199.314 8.30371 198.455 9.15848 198.455 10.2129C198.455 11.2673 199.314 12.1221 200.373 12.1221Z" fill="#E6E6E6"/>
<path d="M206.343 12.1221C207.402 12.1221 208.261 11.2673 208.261 10.2129C208.261 9.15848 207.402 8.30371 206.343 8.30371C205.283 8.30371 204.424 9.15848 204.424 10.2129C204.424 11.2673 205.283 12.1221 206.343 12.1221Z" fill="#E6E6E6"/>
<path d="M193.062 41.9834H120.706C119.304 41.9853 117.96 42.5402 116.969 43.5264C115.978 44.5126 115.42 45.8496 115.418 47.2443V94.0446C115.42 95.4393 115.978 96.7763 116.969 97.7625C117.96 98.7487 119.304 99.3036 120.706 99.3055H193.062C194.464 99.3043 195.808 98.7496 196.799 97.7633C197.791 96.7769 198.348 95.4395 198.349 94.0446V47.2443C198.348 45.8494 197.791 44.5119 196.799 43.5256C195.808 42.5393 194.464 41.9846 193.062 41.9834Z" fill="#F2F2F2"/>
<path d="M170.41 61.9633C163.871 73.4671 156.656 84.5766 148.801 95.2339H137.454C144.886 86.2245 152.324 77.2151 159.767 68.2057C161.902 65.6116 164.219 62.8939 167.422 61.8398L170.41 61.9633Z" fill="#222222"/>
<path d="M155.33 60.1188C154.147 61.3459 153.013 62.6223 151.945 63.9483C149.595 66.7647 147.277 69.6059 144.952 72.4388C143.503 74.2011 142.055 75.9635 140.623 77.7259C140.168 77.4353 139.737 77.1104 139.332 76.7541C137.045 74.779 135.627 71.9912 135.381 68.988C135.135 65.9848 136.08 63.0052 138.016 60.6876C139.951 58.37 142.721 56.8988 145.734 56.5893C148.746 56.2798 151.76 57.1566 154.13 59.0318C154.557 59.3633 154.959 59.7267 155.33 60.1188Z" fill="#2CA4FF"/>
<path d="M198.349 58.7803V60.4901L197.582 60.2101L186.782 56.2814C183.264 55.0044 179.755 53.5449 176.122 52.6243C172.962 51.7247 169.605 51.7675 166.469 52.7473C163.673 53.7765 161.115 55.3566 158.948 57.393C157.988 58.2755 157.059 59.1791 156.159 60.1168C155.865 60.4265 155.571 60.7362 155.281 61.0459C154.411 61.9878 153.571 62.9508 152.774 63.9479C150.424 66.765 148.105 69.6075 145.781 72.4373C144.331 74.2023 142.882 75.963 141.449 77.7236C136.665 83.5488 131.909 89.3852 127.182 95.2329C126.546 95.2258 125.912 95.1461 125.293 94.9954C130.116 89.0345 134.961 83.0892 139.829 77.1594C139.94 77.0236 140.05 76.8878 140.161 76.7521C140.733 76.0436 141.317 75.3308 141.897 74.6223C144.323 71.6652 146.75 68.7109 149.179 65.7594C150.944 63.6127 152.697 61.4574 154.599 59.421C154.714 59.2894 154.833 59.1622 154.957 59.0307C155.14 58.8355 155.323 58.6446 155.511 58.4452C159.643 54.1983 164.798 50.4436 170.972 50.3418C174.604 50.2866 178.113 51.4321 181.49 52.6413C185.127 53.9522 188.752 55.2844 192.384 56.6081L198.349 58.7803Z" fill="#222222"/>
<path d="M200.051 202.635H113.641C112.24 202.634 110.896 202.079 109.905 201.093C108.914 200.106 108.356 198.769 108.354 197.375V185.787C108.356 184.392 108.914 183.055 109.905 182.069C110.896 181.083 112.24 180.528 113.641 180.526H200.051C201.452 180.528 202.796 181.083 203.787 182.069C204.778 183.055 205.336 184.392 205.338 185.787V197.375C205.336 198.769 204.778 200.106 203.787 201.093C202.796 202.079 201.452 202.634 200.051 202.635Z" fill="#F2F2F2"/>
<path d="M200.051 143.239H113.641C112.24 143.237 110.896 142.682 109.905 141.696C108.914 140.71 108.356 139.373 108.354 137.978V126.39C108.356 124.996 108.914 123.659 109.905 122.672C110.896 121.686 112.24 121.131 113.641 121.13H200.051C201.452 121.131 202.796 121.686 203.787 122.672C204.778 123.659 205.336 124.996 205.338 126.39V137.978C205.336 139.373 204.778 140.71 203.787 141.696C202.796 142.682 201.452 143.237 200.051 143.239Z" fill="#F2F2F2"/>
<path d="M200.051 172.937H113.641C112.24 172.935 110.896 172.381 109.905 171.394C108.914 170.408 108.356 169.071 108.354 167.676V156.089C108.356 154.694 108.914 153.357 109.905 152.371C110.896 151.384 112.24 150.83 113.641 150.828H200.051C201.452 150.83 202.796 151.384 203.787 152.371C204.778 153.357 205.336 154.694 205.338 156.089V167.676C205.336 169.071 204.778 170.408 203.787 171.394C202.796 172.381 201.452 172.935 200.051 172.937Z" fill="#F2F2F2"/>
<path d="M167.344 189.598H141.884C141.582 189.598 141.292 189.478 141.079 189.266C140.865 189.053 140.745 188.765 140.745 188.464C140.745 188.164 140.865 187.876 141.079 187.663C141.292 187.45 141.582 187.331 141.884 187.331H167.344C167.646 187.331 167.936 187.45 168.149 187.663C168.363 187.876 168.483 188.164 168.483 188.464C168.483 188.765 168.363 189.053 168.149 189.266C167.936 189.478 167.646 189.598 167.344 189.598Z" fill="white"/>
<path d="M191.831 195.831H141.599C141.297 195.831 141.008 195.712 140.794 195.499C140.58 195.287 140.46 194.998 140.46 194.698C140.46 194.397 140.58 194.109 140.794 193.896C141.008 193.684 141.297 193.564 141.599 193.564H191.831C192.133 193.564 192.423 193.684 192.636 193.896C192.85 194.109 192.97 194.397 192.97 194.698C192.97 194.998 192.85 195.287 192.636 195.499C192.423 195.712 192.133 195.831 191.831 195.831Z" fill="white"/>
<path d="M128.358 199.179C132.576 199.179 135.995 195.777 135.995 191.581C135.995 187.384 132.576 183.982 128.358 183.982C124.141 183.982 120.722 187.384 120.722 191.581C120.722 195.777 124.141 199.179 128.358 199.179Z" fill="white"/>
<path d="M80.0647 218.404C79.2854 218.041 78.3948 217.996 77.5824 218.277C76.7699 218.558 76.0998 219.143 75.7145 219.909C75.6386 220.065 75.576 220.228 75.5271 220.395L64.028 221.079L62.3237 227.007L77.9743 224.376C78.6862 224.524 79.4273 224.433 80.0819 224.118C80.7365 223.803 81.2679 223.281 81.5931 222.633C81.7746 222.263 81.881 221.861 81.9064 221.45C81.9317 221.039 81.8754 220.627 81.7408 220.238C81.6061 219.849 81.3957 219.49 81.1216 219.181C80.8474 218.873 80.5149 218.621 80.143 218.44C80.117 218.428 80.0909 218.416 80.0647 218.404Z" fill="#E9B8A9"/>
<path d="M54.6826 189.163C53.9248 188.854 53.1092 188.712 52.2912 188.745C51.4731 188.778 50.6718 188.986 49.9418 189.355C49.2118 189.724 48.5702 190.245 48.0606 190.882C47.551 191.52 47.1854 192.259 46.9886 193.05L43.8271 205.754L44.4218 227.978C44.4218 227.978 60.9236 231.129 63.6938 229.104C66.4641 227.078 66.2039 225.571 66.4641 227.078C66.7242 228.586 67.9132 229.219 67.9297 228.619C67.9462 228.019 68.0807 228.122 68.771 227.941C69.4614 227.76 72.5082 226.643 72.5082 226.643L72.6447 220.306C72.6447 220.306 67.6076 218.406 66.3856 218.973C65.1635 219.54 66.6457 220.481 65.1635 219.54C63.6814 218.599 63.5194 215.63 63.266 218.306C63.0126 220.982 62.2707 221.48 61.1595 220.29C60.0483 219.101 54.9 219.861 54.9 219.861L58.176 195.156C58.3408 193.913 58.0874 192.651 57.4554 191.567C56.8234 190.483 55.8484 189.637 54.6826 189.163Z" fill="#2CA4FF"/>
<path d="M165.812 255.071L165.986 250.391L147.928 247.498L147.672 254.405L165.812 255.071Z" fill="#E9B8A9"/>
<path d="M162.534 256.479L162.363 248.986L165.582 249.104L170.779 242.178C171.036 241.836 171.396 241.584 171.806 241.46C172.217 241.335 172.656 241.345 173.061 241.487C173.466 241.629 173.814 241.896 174.055 242.249C174.297 242.602 174.418 243.023 174.402 243.449L174.072 252.35L170.831 253.767L173.993 254.483L173.869 257.839L162.534 256.479Z" fill="#F1F1F1"/>
<path d="M64.1802 265.801L121.376 259.183C121.376 259.183 146.075 260.603 151.87 256.852L157.981 256.084L158.312 247.152C158.312 247.152 154.576 247.18 152.427 246.184C150.279 245.188 151.772 243.969 149.723 245.167C147.675 246.366 147.891 246.51 146.307 245.959C144.724 245.408 72.0961 242.454 72.0961 242.454L64.1802 265.801Z" fill="#4D4C5A"/>
<path d="M139.549 261.926L142.875 258.613L131.615 244.271L126.706 249.162L139.549 261.926Z" fill="#E9B8A9"/>
<path d="M136.184 260.74L141.18 255.131L143.459 257.396L152.003 255.835C152.425 255.758 152.861 255.817 153.247 256.004C153.633 256.191 153.949 256.495 154.148 256.873C154.348 257.251 154.421 257.683 154.356 258.105C154.292 258.527 154.094 258.917 153.79 259.219L147.465 265.521L144.12 264.367L145.949 267.032L143.563 269.408L136.184 260.74Z" fill="#F1F1F1"/>
<path d="M41.6147 234.634L42.1834 247.786C42.8528 263.268 59.9887 272.639 73.2763 264.555C73.5212 264.406 73.7669 264.252 74.0135 264.092C74.0135 264.092 79.0508 262.746 78.8979 260.614C78.745 258.483 79.9756 257.445 81.0647 258.027C82.1537 258.608 96.4127 238.472 96.4127 238.472C96.4127 238.472 126.038 253.177 132.574 256.638L139.47 254.769C139.47 254.769 142.065 255.988 141.13 254.224C140.195 252.46 140.028 253.305 139.741 251.383C139.453 249.461 138.719 247.078 138.273 247.178C137.828 247.279 101.623 222.064 101.623 222.064C101.623 222.064 95.7246 216.125 88.4081 220.046C88.2557 220.622 88.386 220.642 88.386 220.642L64.2169 240.239L60.8018 233.785L41.6147 234.634Z" fill="#4D4C5A"/>
<path d="M57.8595 186.308L47.4969 181.476L44.3945 186.847C44.3945 186.847 36.0622 198.678 35.9414 207.214C35.8205 215.749 37.2992 218.287 37.2992 218.287C37.2992 218.287 33.7067 220.96 35.503 222.593C37.2992 224.227 41.2759 224.932 38.2216 225.64C35.1673 226.348 35.9414 233.518 39.3524 234.791C42.7634 236.063 61.0825 236.052 61.0825 236.052C60.9178 235.496 60.9057 234.907 61.0474 234.345C61.1891 233.783 61.4794 233.268 61.8882 232.856C63.3084 231.439 64.5875 232.456 63.3084 230.25C62.0293 228.045 59.8974 229.318 61.6029 226.348C63.3084 223.378 63.3078 222.491 63.3078 222.491C63.3078 222.491 66.7846 215.907 61.5476 208.764C61.2284 208.329 61.4968 208.312 61.4968 208.312L57.268 194.211L57.8595 186.308Z" fill="#2CA4FF"/>
<path d="M41.1598 165.989C41.2475 168.167 39.868 171.253 39.1887 173.114C38.4624 175.103 41.6102 177.744 43.625 178.322C43.7299 177.633 44.0754 177.002 44.6008 176.541C44.4556 177.198 44.443 177.877 44.5636 178.539L61.5966 182.397C64.6608 178.866 67.7419 173.79 67.0698 167.668C67.2308 166.506 67.043 165.322 66.5302 164.265C66.0173 163.208 65.2022 162.326 64.1871 161.729L55.5761 156.667C51.9135 155.837 47.301 155.336 44.6554 157.591C43.4734 158.638 42.5449 159.937 41.9395 161.391C41.3341 162.846 41.0675 164.418 41.1598 165.989Z" fill="#2F2E41"/>
<path d="M56.3844 180.532C61.8005 180.532 66.1911 176.163 66.1911 170.774C66.1911 165.384 61.8005 161.016 56.3844 161.016C50.9683 161.016 46.5776 165.384 46.5776 170.774C46.5776 176.163 50.9683 180.532 56.3844 180.532Z" fill="#E9B8A9"/>
<path d="M44.8961 165.561L44.4229 167.629L52.6961 169.504C52.7035 169.085 52.7976 168.673 52.9727 168.293C53.1478 167.912 53.4 167.572 53.7135 167.293C53.5351 168.104 53.5554 168.946 53.7729 169.748C58.2347 172.239 62.2562 173.121 65.8623 172.486C66.3509 172.597 66.8636 172.51 67.2877 172.244C67.7118 171.979 68.0126 171.557 68.1238 171.07C69.5747 164.729 65.7735 158.247 59.4315 156.673C57.89 156.29 56.287 156.216 54.7165 156.457C53.1461 156.698 51.6398 157.249 50.286 158.076C48.9321 158.904 47.758 159.993 46.8325 161.278C45.907 162.563 45.2486 164.019 44.8961 165.561V165.561Z" fill="#2F2E41"/>
<path d="M49.7331 151.914C50.824 151.678 51.9785 151.735 52.9648 151L52.318 152.477C54.1114 151.989 56.0233 152.179 57.6841 153.011C58.1779 153.231 58.5991 153.586 58.8989 154.034C59.0601 154.305 59.1581 154.608 59.1857 154.922C59.2134 155.235 59.17 155.551 59.0587 155.845C58.9527 156.098 58.7949 156.326 58.5953 156.515C58.3958 156.703 58.1589 156.848 57.8998 156.941C57.4406 157.078 56.9595 157.128 56.4817 157.088C54.4683 157.042 52.4549 156.995 50.4415 156.948C49.6742 156.996 48.9075 156.847 48.2139 156.517C47.8451 156.291 47.5509 155.962 47.3673 155.571C47.1837 155.181 47.1187 154.745 47.1803 154.318C47.3724 152.975 48.6422 152.15 49.7331 151.914Z" fill="#2F2E41"/>
<path d="M102.93 228.392C102.907 228.364 102.88 228.339 102.85 228.318C102.777 228.234 102.687 228.164 102.587 228.114L101.869 227.732L97.1054 222.469C96.8296 222.326 96.5088 222.295 96.2108 222.384L96.1985 222.387L94.1577 223.015L92.4025 223.557L89.9507 224.313L73.2511 229.459L62.274 232.841C61.9773 232.934 61.7292 233.14 61.5833 233.413C61.4374 233.687 61.4053 234.006 61.494 234.303C61.5456 234.467 61.6309 234.618 61.7446 234.746L62.0939 235.133L62.8266 235.945L64.5241 239.446L64.995 239.969C65.1451 240.135 65.3397 240.256 65.5561 240.316C65.7725 240.377 66.0018 240.375 66.217 240.31L102.38 230.304C102.568 230.243 102.738 230.138 102.875 229.997C103.013 229.855 103.113 229.682 103.167 229.494C103.221 229.305 103.228 229.105 103.187 228.913C103.145 228.721 103.057 228.542 102.93 228.392Z" fill="#CCCCCC"/>
<path d="M100.783 176.333L100.083 176.446C99.8908 176.477 99.7192 176.583 99.6054 176.74L99.2968 177.17L96.5138 184.094C96.4005 184.253 96.355 184.449 96.3873 184.641L96.7133 186.614L95.481 221.83C95.5121 222.012 95.6104 222.176 95.7566 222.29L101.16 229.482L101.286 229.582L101.558 229.794C101.698 229.901 101.871 229.956 102.047 229.949L102.507 229.927C102.611 229.922 102.713 229.895 102.806 229.848C102.899 229.8 102.981 229.734 103.046 229.653C103.112 229.573 103.16 229.479 103.186 229.379C103.213 229.279 103.217 229.174 103.199 229.072L101.632 176.935C101.6 176.744 101.493 176.572 101.335 176.459C101.176 176.346 100.979 176.3 100.787 176.332L100.783 176.333Z" fill="#CCCCCC"/>
<path d="M99.6106 179.068L97.1452 186.541L96.1914 216.389L100.029 219.784L99.6106 179.068Z" fill="#2CA4FF"/>
<path d="M80.5456 224.599C79.7664 224.237 78.8758 224.191 78.0633 224.472C77.2509 224.753 76.5807 225.339 76.1955 226.104C76.1196 226.261 76.0569 226.423 76.0081 226.591L64.5089 227.274L62.8047 233.202L78.4553 230.571C79.1672 230.719 79.9082 230.628 80.5629 230.313C81.2175 229.998 81.7489 229.476 82.0741 228.829C82.4406 228.081 82.4937 227.22 82.2217 226.433C81.9498 225.647 81.375 225 80.6239 224.636C80.598 224.623 80.5719 224.611 80.5456 224.599Z" fill="#E9B8A9"/>
<path d="M55.1635 195.358C54.4058 195.05 53.5902 194.907 52.7721 194.94C51.9541 194.973 51.1528 195.181 50.4228 195.55C49.6928 195.919 49.0512 196.44 48.5416 197.078C48.032 197.715 47.6663 198.455 47.4695 199.245L44.3081 211.949L44.9028 234.174C44.9028 234.174 61.4046 237.324 64.1748 235.299C66.945 233.274 66.6849 231.766 66.945 233.274C67.2051 234.781 68.3942 235.414 68.4107 234.814C68.4272 234.214 68.5617 234.317 69.252 234.136C69.9423 233.956 72.9892 232.838 72.9892 232.838L73.1256 226.502C73.1256 226.502 68.0886 224.602 66.8665 225.169C65.6445 225.735 67.1266 226.676 65.6445 225.735C64.1624 224.795 64.0004 221.826 63.747 224.501C63.4935 227.177 62.7517 227.676 61.6404 226.486C60.5292 225.296 55.381 226.056 55.381 226.056L58.657 201.351C58.8218 200.109 58.5684 198.847 57.9364 197.762C57.3044 196.678 56.3293 195.833 55.1635 195.358Z" fill="#2CA4FF"/>
<path d="M269.124 143.239H182.715C181.313 143.237 179.97 142.682 178.978 141.696C177.987 140.71 177.43 139.373 177.428 137.978V126.39C177.43 124.996 177.987 123.659 178.978 122.672C179.97 121.686 181.313 121.131 182.715 121.13H269.124C270.526 121.131 271.87 121.686 272.861 122.672C273.852 123.659 274.41 124.996 274.411 126.39V137.978C274.41 139.373 273.852 140.71 272.861 141.696C271.87 142.682 270.526 143.237 269.124 143.239Z" fill="#E6E6E6"/>
<path d="M236.418 130.201H210.958C210.656 130.201 210.366 130.082 210.152 129.869C209.939 129.657 209.819 129.368 209.819 129.068C209.819 128.767 209.939 128.479 210.152 128.266C210.366 128.054 210.656 127.935 210.958 127.935H236.418C236.72 127.935 237.009 128.054 237.223 128.266C237.437 128.479 237.557 128.767 237.557 129.068C237.557 129.368 237.437 129.657 237.223 129.869C237.009 130.082 236.72 130.201 236.418 130.201Z" fill="white"/>
<path d="M260.905 136.435H210.673C210.371 136.435 210.081 136.315 209.868 136.103C209.654 135.89 209.534 135.602 209.534 135.301C209.534 135.001 209.654 134.712 209.868 134.5C210.081 134.287 210.371 134.168 210.673 134.168H260.905C261.207 134.168 261.497 134.287 261.71 134.5C261.924 134.712 262.044 135.001 262.044 135.301C262.044 135.602 261.924 135.89 261.71 136.103C261.497 136.315 261.207 136.435 260.905 136.435Z" fill="white"/>
<path d="M197.432 139.783C201.649 139.783 205.068 136.381 205.068 132.184C205.068 127.988 201.649 124.586 197.432 124.586C193.214 124.586 189.795 127.988 189.795 132.184C189.795 136.381 193.214 139.783 197.432 139.783Z" fill="white"/>
<path d="M241.41 172.937H155C153.598 172.935 152.255 172.381 151.264 171.394C150.272 170.408 149.715 169.071 149.713 167.676V156.089C149.715 154.694 150.272 153.357 151.264 152.371C152.255 151.384 153.598 150.83 155 150.828H241.41C242.811 150.83 244.155 151.384 245.146 152.371C246.137 153.357 246.695 154.694 246.696 156.089V167.676C246.695 169.071 246.137 170.408 245.146 171.394C244.155 172.381 242.811 172.935 241.41 172.937Z" fill="#E6E6E6"/>
<path d="M208.703 159.899H183.243C182.941 159.899 182.651 159.78 182.438 159.567C182.224 159.355 182.104 159.067 182.104 158.766C182.104 158.466 182.224 158.177 182.438 157.965C182.651 157.752 182.941 157.633 183.243 157.633H208.703C209.005 157.633 209.295 157.752 209.508 157.965C209.722 158.177 209.842 158.466 209.842 158.766C209.842 159.067 209.722 159.355 209.508 159.567C209.295 159.78 209.005 159.899 208.703 159.899Z" fill="white"/>
<path d="M233.19 166.133H182.958C182.656 166.133 182.367 166.013 182.153 165.801C181.939 165.588 181.819 165.3 181.819 165C181.819 164.699 181.939 164.411 182.153 164.198C182.367 163.986 182.656 163.866 182.958 163.866H233.19C233.492 163.866 233.782 163.986 233.995 164.198C234.209 164.411 234.329 164.699 234.329 165C234.329 165.3 234.209 165.588 233.995 165.801C233.782 166.013 233.492 166.133 233.19 166.133Z" fill="white"/>
<path d="M169.717 169.481C173.935 169.481 177.354 166.079 177.354 161.882C177.354 157.686 173.935 154.284 169.717 154.284C165.5 154.284 162.081 157.686 162.081 161.882C162.081 166.079 165.5 169.481 169.717 169.481Z" fill="white"/>
<g clip-path="url(#clip0_204_823)">
<path d="M114.687 28.1284C114.687 27.5578 114.164 26.9518 113.258 26.9518C112.241 26.9518 111.124 27.7427 110.953 29.3207C110.779 30.9144 111.714 31.6227 112.657 31.6227C113.6 31.6227 114.093 31.2332 114.598 30.7137C114.164 30.1353 113.603 30.4029 113.496 30.4619C113.377 30.5248 113.225 30.6114 112.913 30.6114C112.549 30.6114 112.178 30.4383 112.178 29.7182C114.509 29.4742 114.687 28.699 114.687 28.1284ZM113.533 28.2228C113.518 28.3999 113.451 28.7029 112.271 28.8721C112.519 27.9356 112.995 27.8647 113.214 27.8647C113.418 27.8647 113.548 28.0339 113.533 28.2228ZM109.584 28.3763C109.584 28.3763 109.083 30.0448 109.042 30.1825C109.027 30.0408 108.66 27.0462 108.66 27.0462C107.806 27.0462 107.349 27.6916 107.108 28.3724C107.108 28.3724 106.499 30.0448 106.447 30.1864C106.444 30.0566 106.355 28.392 106.355 28.392C106.303 27.5578 105.583 27.0502 105 27.0502L105.705 31.5873C106.6 31.5834 107.082 30.942 107.335 30.2612C107.335 30.2612 107.873 28.7855 107.895 28.7186C107.899 28.7816 108.281 31.5873 108.281 31.5873C109.179 31.5873 109.662 30.9852 109.921 30.3281L111.18 27.0502C110.293 27.0502 109.825 27.6916 109.584 28.3763ZM117.983 26.9439C117.43 26.9439 117.007 27.2627 116.65 27.7309V27.727L116.97 25C116.235 25 115.637 25.6768 115.522 26.6842L114.965 31.5519C115.388 31.5519 115.838 31.422 116.079 31.0915C116.294 31.3866 116.617 31.6227 117.096 31.6227C118.335 31.6227 119.185 30.0959 119.185 28.6636C119.178 27.3571 118.58 26.9439 117.983 26.9439ZM117.868 29.2853C117.738 30.0841 117.318 30.6272 116.914 30.6272C116.506 30.6272 116.331 30.4343 116.331 30.4343C116.409 29.7339 116.457 29.305 116.606 28.9351C116.754 28.5652 117.107 27.9749 117.474 27.9749C117.834 27.9749 117.998 28.4825 117.868 29.2853ZM122.281 27.0502H121.416L121.42 27.003C121.479 26.4048 121.613 26.09 122.054 26.0389C122.355 26.0074 122.489 25.8421 122.522 25.6611C122.548 25.5194 122.63 25.0275 122.63 25.0275C120.893 25.0157 120.347 25.8106 120.206 27.0226L120.202 27.0502H120.184C119.902 27.0502 119.59 27.3886 119.538 27.8175L119.519 27.9749H120.098L119.612 32.2327L119.464 32.9961C119.482 32.9961 119.505 33 119.523 33C120.336 32.9685 120.855 32.2878 120.971 31.3L121.349 27.9749H121.62C121.887 27.9749 122.199 27.6916 122.255 27.2194L122.281 27.0502ZM126.779 26.9715C125.781 26.9715 124.838 27.7506 124.548 28.9744C124.259 30.1982 124.697 31.6463 126.167 31.6463C127.633 31.6463 128.479 30.1392 128.479 28.8839C128.479 27.6365 127.681 26.9715 126.779 26.9715ZM127.184 29.2459C127.132 29.8008 126.902 30.6429 126.271 30.6429C125.636 30.6429 125.725 29.6591 125.788 29.1909C125.855 28.6911 126.118 27.9788 126.686 27.9788C127.195 27.9788 127.243 28.6203 127.184 29.2459ZM133.411 28.3763C133.411 28.3763 132.91 30.0448 132.87 30.1825C132.855 30.0408 132.487 27.0462 132.487 27.0462C131.634 27.0462 131.177 27.6916 130.936 28.3724C130.936 28.3724 130.327 30.0448 130.275 30.1864C130.272 30.0566 130.182 28.392 130.182 28.392C130.131 27.5578 129.41 27.0502 128.828 27.0502L129.529 31.5873C130.424 31.5834 130.906 30.942 131.159 30.2612C131.159 30.2612 131.697 28.7855 131.715 28.7186C131.723 28.7816 132.101 31.5873 132.101 31.5873C133 31.5873 133.482 30.9852 133.742 30.3281L135 27.0502C134.117 27.0502 133.649 27.6916 133.411 28.3763ZM123.097 25.0275L122.37 31.2489L122.221 32.0162C122.24 32.0162 122.262 32.0202 122.281 32.0202C123.064 32.0084 123.621 31.2804 123.724 30.3635L124.144 26.7944C124.27 25.7044 123.658 25.0275 123.097 25.0275Z" fill="#2CA4FF"/>
</g>
<defs>
<clipPath id="clip0_204_823">
<rect width="30" height="8" fill="white" transform="translate(105 25)"/>
</clipPath>
</defs>
</svg>
