<svg width="340" height="238" viewBox="0 0 340 238" fill="none" xmlns="http://www.w3.org/2000/svg">
<path d="M277.703 149.261H58.7227C57.2278 149.259 55.7947 148.666 54.7377 147.611C53.6807 146.556 53.0862 145.125 53.0845 143.633V8.83367C53.0857 7.7404 53.5213 6.69225 54.2956 5.91917C55.07 5.14609 56.1199 4.71122 57.215 4.70996H279.139C280.253 4.71123 281.321 5.15361 282.109 5.94005C282.896 6.7265 283.34 7.79278 283.341 8.90496V143.633C283.339 145.125 282.745 146.556 281.688 147.611C280.631 148.666 279.197 149.259 277.703 149.261Z" fill="#F2F2F2"/>
<path d="M269.715 141.289H65.6311C62.6394 141.289 60.2056 139.014 60.2056 136.217V18.8329C60.2056 16.7588 62.0091 15.0713 64.226 15.0713H271.053C273.307 15.0713 275.14 16.7866 275.14 18.8948V136.217C275.14 139.014 272.706 141.289 269.715 141.289Z" fill="white"/>
<path d="M283.262 8.51126H53.0054V5.64564C53.0075 4.14838 53.6045 2.71312 54.6654 1.65472C55.7262 0.596328 57.1643 0.00123698 58.6641 0H277.604C279.103 0.00122978 280.542 0.596319 281.602 1.65471C282.663 2.71311 283.26 4.14838 283.262 5.64564V8.51126Z" fill="#CCCCCC"/>
<path d="M63.2894 5.72514C64.0977 5.72514 64.753 5.07094 64.753 4.26394C64.753 3.45694 64.0977 2.80273 63.2894 2.80273C62.481 2.80273 61.8257 3.45694 61.8257 4.26394C61.8257 5.07094 62.481 5.72514 63.2894 5.72514Z" fill="white"/>
<path d="M68.845 5.72514C69.6534 5.72514 70.3087 5.07094 70.3087 4.26394C70.3087 3.45694 69.6534 2.80273 68.845 2.80273C68.0367 2.80273 67.3813 3.45694 67.3813 4.26394C67.3813 5.07094 68.0367 5.72514 68.845 5.72514Z" fill="white"/>
<path d="M74.4007 5.72514C75.2091 5.72514 75.8644 5.07094 75.8644 4.26394C75.8644 3.45694 75.2091 2.80273 74.4007 2.80273C73.5923 2.80273 72.937 3.45694 72.937 4.26394C72.937 5.07094 73.5923 5.72514 74.4007 5.72514Z" fill="white"/>
<path d="M247.251 121.602H89.0951C87.5097 121.6 85.9898 120.971 84.8687 119.852C83.7476 118.732 83.117 117.215 83.1152 115.632V39.5078C83.1166 38.3241 83.5882 37.1892 84.4266 36.3522C85.265 35.5152 86.4018 35.0443 87.5875 35.043H248.687C249.892 35.0444 251.047 35.5227 251.899 36.3731C252.75 37.2235 253.23 38.3765 253.231 39.5791V115.632C253.229 117.215 252.599 118.732 251.477 119.852C250.356 120.971 248.836 121.6 247.251 121.602ZM87.5875 35.7252C86.583 35.7264 85.6199 36.1253 84.9096 36.8344C84.1993 37.5435 83.7998 38.505 83.7987 39.5078V115.632C83.8002 117.034 84.3588 118.378 85.3517 119.369C86.3446 120.361 87.6909 120.918 89.0951 120.92H247.251C248.655 120.918 250.001 120.361 250.994 119.369C251.987 118.378 252.546 117.034 252.547 115.632V39.5791C252.546 38.5574 252.139 37.5778 251.416 36.8553C250.692 36.1328 249.711 35.7264 248.687 35.7252H87.5875Z" fill="#CCCCCC"/>
<path d="M94.5626 115.632H241.784C243.234 115.632 244.624 115.057 245.65 114.034C246.675 113.01 247.251 111.622 247.251 110.174V46.5372C247.251 45.0896 246.675 43.7013 245.65 42.6777C244.624 41.6541 243.234 41.0791 241.784 41.0791H94.5626C93.1125 41.0791 91.7219 41.6541 90.6966 42.6777C89.6712 43.7013 89.0952 45.0896 89.0952 46.5372V110.174C89.0952 111.622 89.6712 113.01 90.6966 114.034C91.7219 115.057 93.1125 115.632 94.5626 115.632Z" fill="#F2F2F2"/>
<path d="M111.279 59.5935C112.977 59.5935 114.354 58.2189 114.354 56.5233C114.354 54.8277 112.977 53.4531 111.279 53.4531C109.58 53.4531 108.203 54.8277 108.203 56.5233C108.203 58.2189 109.58 59.5935 111.279 59.5935Z" fill="#CCCCCC"/>
<path d="M111.279 71.1921C112.977 71.1921 114.354 69.8175 114.354 68.1219C114.354 66.4263 112.977 65.0518 111.279 65.0518C109.58 65.0518 108.203 66.4263 108.203 68.1219C108.203 69.8175 109.58 71.1921 111.279 71.1921Z" fill="#CCCCCC"/>
<path d="M111.279 82.7907C112.977 82.7907 114.354 81.4162 114.354 79.7206C114.354 78.025 112.977 76.6504 111.279 76.6504C109.58 76.6504 108.203 78.025 108.203 79.7206C108.203 81.4162 109.58 82.7907 111.279 82.7907Z" fill="#CCCCCC"/>
<path d="M111.279 94.3894C112.977 94.3894 114.354 93.0148 114.354 91.3192C114.354 89.6236 112.977 88.249 111.279 88.249C109.58 88.249 108.203 89.6236 108.203 91.3192C108.203 93.0148 109.58 94.3894 111.279 94.3894Z" fill="#CCCCCC"/>
<path d="M227.801 56.8649H126.656C126.565 56.8649 126.478 56.8289 126.414 56.765C126.35 56.701 126.314 56.6142 126.314 56.5237C126.314 56.4333 126.35 56.3465 126.414 56.2825C126.478 56.2186 126.565 56.1826 126.656 56.1826H227.801C227.892 56.1826 227.979 56.2186 228.043 56.2825C228.107 56.3465 228.143 56.4333 228.143 56.5237C228.143 56.6142 228.107 56.701 228.043 56.765C227.979 56.8289 227.892 56.8649 227.801 56.8649Z" fill="#CCCCCC"/>
<path d="M227.801 68.4635H126.656C126.565 68.4635 126.478 68.4276 126.414 68.3636C126.35 68.2996 126.314 68.2129 126.314 68.1224C126.314 68.0319 126.35 67.9451 126.414 67.8812C126.478 67.8172 126.565 67.7812 126.656 67.7812H227.801C227.892 67.7812 227.979 67.8172 228.043 67.8812C228.107 67.9451 228.143 68.0319 228.143 68.1224C228.143 68.2129 228.107 68.2996 228.043 68.3636C227.979 68.4276 227.892 68.4635 227.801 68.4635Z" fill="#CCCCCC"/>
<path d="M227.801 80.0612H126.656C126.565 80.0612 126.478 80.0252 126.414 79.9613C126.35 79.8973 126.314 79.8105 126.314 79.72C126.314 79.6296 126.35 79.5428 126.414 79.4788C126.478 79.4149 126.565 79.3789 126.656 79.3789H227.801C227.892 79.3789 227.979 79.4149 228.043 79.4788C228.107 79.5428 228.143 79.6296 228.143 79.72C228.143 79.8105 228.107 79.8973 228.043 79.9613C227.979 80.0252 227.892 80.0612 227.801 80.0612Z" fill="#CCCCCC"/>
<path d="M227.801 91.6598H126.656C126.565 91.6598 126.478 91.6239 126.414 91.5599C126.35 91.4959 126.314 91.4091 126.314 91.3187C126.314 91.2282 126.35 91.1414 126.414 91.0775C126.478 91.0135 126.565 90.9775 126.656 90.9775H227.801C227.892 90.9775 227.979 91.0135 228.043 91.0775C228.107 91.1414 228.143 91.2282 228.143 91.3187C228.143 91.4091 228.107 91.4959 228.043 91.5599C227.979 91.6239 227.892 91.6598 227.801 91.6598Z" fill="#CCCCCC"/>
<path d="M145.791 103.259H135.882C135.429 103.258 134.995 103.078 134.674 102.758C134.354 102.439 134.174 102.005 134.173 101.553V92.3424C134.174 91.8902 134.354 91.4566 134.674 91.1369C134.995 90.8171 135.429 90.6372 135.882 90.6367H145.791C146.244 90.6372 146.679 90.8171 146.999 91.1369C147.319 91.4566 147.499 91.8902 147.5 92.3424V101.553C147.499 102.005 147.319 102.439 146.999 102.758C146.679 103.078 146.244 103.258 145.791 103.259Z" fill="#2CA4FF"/>
<path d="M168.002 103.258H158.093C157.64 103.258 157.206 103.078 156.885 102.758C156.565 102.438 156.385 102.005 156.384 101.553V80.7437C156.385 80.2915 156.565 79.858 156.885 79.5382C157.206 79.2185 157.64 79.0386 158.093 79.0381H168.002C168.455 79.0386 168.89 79.2185 169.21 79.5382C169.53 79.858 169.71 80.2915 169.711 80.7437V101.553C169.71 102.005 169.53 102.438 169.21 102.758C168.89 103.078 168.455 103.258 168.002 103.258Z" fill="#2CA4FF"/>
<path d="M190.555 103.258H180.646C180.193 103.258 179.758 103.078 179.438 102.758C179.118 102.438 178.938 102.005 178.937 101.552V69.1451C178.938 68.6929 179.118 68.2594 179.438 67.9396C179.758 67.6198 180.193 67.44 180.646 67.4395H190.555C191.008 67.44 191.442 67.6198 191.763 67.9396C192.083 68.2594 192.263 68.6929 192.264 69.1451V101.552C192.263 102.005 192.083 102.438 191.763 102.758C191.442 103.078 191.008 103.258 190.555 103.258Z" fill="#2CA4FF"/>
<path d="M213.791 103.259H203.882C203.429 103.258 202.995 103.078 202.674 102.758C202.354 102.439 202.174 102.005 202.173 101.553V57.8883C202.174 57.4361 202.354 57.0025 202.674 56.6828C202.995 56.363 203.429 56.1831 203.882 56.1826H213.791C214.244 56.1831 214.679 56.363 214.999 56.6828C215.319 57.0025 215.499 57.4361 215.5 57.8883V101.553C215.499 102.005 215.319 102.439 214.999 102.758C214.679 103.078 214.244 103.258 213.791 103.259Z" fill="#2CA4FF"/>
<path d="M227.801 103.258H126.656C126.565 103.258 126.478 103.222 126.414 103.159C126.35 103.095 126.314 103.008 126.314 102.917C126.314 102.827 126.35 102.74 126.414 102.676C126.478 102.612 126.565 102.576 126.656 102.576H227.801C227.892 102.576 227.979 102.612 228.043 102.676C228.107 102.74 228.143 102.827 228.143 102.917C228.143 103.008 228.107 103.095 228.043 103.159C227.979 103.222 227.892 103.258 227.801 103.258Z" fill="#3F3D56"/>
<path d="M272.24 166.895C272.517 166.477 272.882 166.124 273.31 165.862C273.739 165.6 274.219 165.435 274.718 165.378C275.218 165.321 275.723 165.374 276.199 165.534C276.676 165.693 277.111 165.955 277.475 166.301L288.326 160.71L287.651 167.009L277.45 171.352C276.828 171.924 276.018 172.248 275.172 172.263C274.326 172.279 273.505 171.983 272.862 171.434C272.22 170.885 271.802 170.119 271.687 169.283C271.572 168.446 271.769 167.597 272.24 166.895Z" fill="#FFB8B8"/>
<path d="M281.576 169.244C281.33 169.051 281.148 168.788 281.055 168.49L280.192 165.706C280.1 165.405 280.102 165.082 280.199 164.782C280.296 164.482 280.483 164.218 280.735 164.028L289.529 157.396L299.055 139.755C299.454 139.242 299.95 138.813 300.515 138.491C301.08 138.17 301.703 137.963 302.349 137.881C302.994 137.8 303.649 137.847 304.277 138.019C304.904 138.19 305.492 138.484 306.005 138.882C306.519 139.28 306.949 139.776 307.271 140.34C307.593 140.904 307.801 141.526 307.882 142.171C307.963 142.815 307.917 143.469 307.745 144.096C307.573 144.722 307.279 145.308 306.88 145.821L301.461 157.239C299.817 160.705 296.967 163.456 293.443 164.981L283.136 169.444C282.938 169.53 282.724 169.573 282.508 169.571C282.292 169.568 282.079 169.521 281.883 169.431C281.773 169.381 281.671 169.318 281.576 169.244Z" fill="#2CA4FF"/>
<path d="M307.119 132.394C311.754 132.394 315.512 128.643 315.512 124.015C315.512 119.388 311.754 115.637 307.119 115.637C302.484 115.637 298.727 119.388 298.727 124.015C298.727 128.643 302.484 132.394 307.119 132.394Z" fill="#E9B8A9"/>
<path d="M303.715 233.926L299.526 233.925L297.533 217.794L303.716 217.794L303.715 233.926Z" fill="#E9B8A9"/>
<path d="M296.533 232.73H304.613V237.809H291.446C291.446 237.142 291.578 236.482 291.834 235.865C292.089 235.249 292.464 234.689 292.936 234.218C293.409 233.746 293.969 233.372 294.587 233.117C295.204 232.862 295.865 232.73 296.533 232.73Z" fill="white"/>
<path d="M317.383 233.926L313.194 233.926L311.202 217.794L317.385 217.795L317.383 233.926Z" fill="#E9B8A9"/>
<path d="M310.201 232.73H318.281V237.809H305.114C305.114 237.142 305.246 236.482 305.501 235.865C305.757 235.249 306.132 234.689 306.604 234.218C307.077 233.746 307.637 233.372 308.255 233.117C308.872 232.862 309.533 232.73 310.201 232.73Z" fill="white"/>
<path d="M317.689 229.833L312.78 229.833C312.442 229.832 312.114 229.721 311.845 229.516C311.577 229.31 311.384 229.023 311.295 228.697L304.229 202.532C304.218 202.491 304.192 202.456 304.157 202.433C304.121 202.41 304.078 202.401 304.037 202.408C303.995 202.415 303.957 202.437 303.931 202.47C303.904 202.503 303.891 202.544 303.894 202.587L305.321 227.401C305.334 227.621 305.299 227.84 305.219 228.045C305.14 228.25 305.017 228.435 304.859 228.589C304.701 228.742 304.513 228.86 304.305 228.934C304.098 229.008 303.877 229.037 303.658 229.019L298.14 228.559C297.787 228.529 297.454 228.378 297.199 228.132C296.944 227.886 296.782 227.559 296.741 227.207L291.714 175.101L293.659 176.266L311.882 173.178L319.214 228.095C319.243 228.312 319.225 228.532 319.161 228.742C319.098 228.951 318.991 229.144 318.846 229.309C318.702 229.474 318.524 229.605 318.325 229.696C318.125 229.786 317.909 229.833 317.689 229.833H317.689Z" fill="#4D4C5A"/>
<path d="M297.808 180.601C295.798 180.585 293.828 180.031 292.105 178.998C291.839 178.841 291.627 178.608 291.497 178.328C291.367 178.049 291.324 177.737 291.375 177.433C292.016 173.514 295.367 153.415 298.417 142.457C299.659 137.994 302.405 135.59 306.579 135.312C312.685 134.913 318.112 139.681 318.677 145.956C319.674 157.025 315.624 172.752 313.837 178.999C313.768 179.241 313.64 179.461 313.465 179.642C313.291 179.823 313.074 179.958 312.835 180.035C312.596 180.113 312.342 180.131 312.094 180.087C311.846 180.044 311.613 179.941 311.415 179.786L307.772 176.957C307.548 176.786 307.271 176.699 306.989 176.711C306.707 176.722 306.438 176.832 306.229 177.021C303.158 179.756 300.241 180.601 297.808 180.601Z" fill="#2CA4FF"/>
<path opacity="0.2" d="M309.857 151.372L312.932 164.335L308.489 175.251L311.565 164.676L309.857 151.372Z" fill="black"/>
<path d="M311.908 130.905C312.655 130.919 313.397 130.785 314.091 130.511C314.397 130.394 314.714 130.297 315.019 130.179C317.712 129.141 319.486 126.277 319.55 123.396C319.614 120.514 318.119 117.717 315.899 115.874C313.68 114.03 310.805 113.084 307.926 112.865C304.825 112.629 301.333 113.414 299.6 115.992C299.139 116.678 298.816 117.511 299.089 118.34C299.171 118.59 299.317 118.814 299.513 118.99C300.287 119.677 301.058 119.16 301.847 119.115C302.932 119.052 303.906 119.928 304.256 120.955C304.606 121.981 304.451 123.111 304.169 124.158C303.953 124.788 303.818 125.443 303.765 126.106C303.742 126.439 303.804 126.772 303.947 127.074C304.089 127.375 304.306 127.636 304.577 127.83C305.255 128.239 306.145 128.003 306.823 127.595C307.501 127.186 308.086 126.619 308.819 126.318C309.551 126.018 310.535 126.085 310.961 126.751C311.097 126.993 311.188 127.258 311.232 127.532C311.614 129.27 311.526 129.167 311.908 130.905Z" fill="#2F2E41"/>
<path d="M298.9 222.223L246.347 203.952C245.445 203.638 244.705 202.979 244.289 202.12C243.873 201.261 243.816 200.273 244.129 199.372L257.786 160.225C258.017 159.565 258.5 159.024 259.13 158.72C259.76 158.416 260.485 158.374 261.147 158.603L315.477 177.492C316.149 177.726 316.7 178.217 317.01 178.857C317.32 179.497 317.363 180.234 317.129 180.905L303.488 220.01C303.173 220.91 302.513 221.649 301.652 222.064C300.792 222.479 299.803 222.536 298.9 222.223Z" fill="#E6E6E6"/>
<path d="M250.831 201.702L296.785 217.679C297.661 217.983 298.621 217.928 299.455 217.525C300.289 217.123 300.929 216.406 301.234 215.532L312.262 183.921C312.566 183.047 312.511 182.088 312.108 181.255C311.705 180.423 310.986 179.784 310.111 179.48L264.157 163.503C263.282 163.198 262.322 163.254 261.487 163.656C260.653 164.059 260.013 164.776 259.708 165.649L248.681 197.261C248.53 197.693 248.466 198.151 248.492 198.609C248.519 199.066 248.635 199.514 248.835 199.926C249.034 200.338 249.313 200.708 249.656 201.012C249.999 201.317 250.398 201.551 250.831 201.702Z" fill="white"/>
<path d="M262.371 179.492L260.095 178.7C259.971 178.657 259.87 178.567 259.813 178.45C259.756 178.332 259.749 178.197 259.791 178.074L260.584 175.802C260.627 175.679 260.717 175.578 260.835 175.521C260.953 175.464 261.088 175.456 261.212 175.499L263.488 176.29C263.611 176.333 263.712 176.423 263.769 176.541C263.826 176.658 263.834 176.793 263.791 176.917L262.998 179.189C262.955 179.312 262.865 179.413 262.747 179.47C262.63 179.527 262.494 179.534 262.371 179.492Z" fill="#2CA4FF"/>
<path d="M260.317 185.379L258.042 184.588C257.918 184.545 257.817 184.455 257.76 184.337C257.703 184.22 257.695 184.085 257.738 183.962L258.531 181.689C258.574 181.566 258.664 181.465 258.782 181.408C258.9 181.352 259.035 181.344 259.158 181.387L261.434 182.178C261.558 182.221 261.659 182.311 261.716 182.429C261.773 182.546 261.781 182.681 261.738 182.804L260.945 185.076C260.902 185.2 260.812 185.301 260.694 185.357C260.576 185.414 260.441 185.422 260.317 185.379Z" fill="#F77765" fill-opacity="0.34"/>
<path d="M258.264 191.265L255.988 190.474C255.865 190.431 255.763 190.341 255.706 190.223C255.65 190.106 255.642 189.971 255.684 189.847L256.477 187.575C256.52 187.452 256.61 187.351 256.728 187.294C256.846 187.237 256.981 187.23 257.105 187.272L259.381 188.064C259.504 188.107 259.605 188.197 259.662 188.314C259.719 188.432 259.727 188.567 259.684 188.69L258.891 190.962C258.848 191.085 258.758 191.186 258.64 191.243C258.523 191.3 258.387 191.308 258.264 191.265Z" fill="#CCCCCC"/>
<path d="M277.663 183.535L266.698 179.723C266.636 179.702 266.58 179.669 266.531 179.626C266.483 179.583 266.443 179.531 266.415 179.472C266.387 179.414 266.37 179.351 266.367 179.286C266.363 179.222 266.372 179.157 266.393 179.096C266.414 179.035 266.448 178.978 266.491 178.93C266.534 178.882 266.586 178.842 266.645 178.814C266.703 178.786 266.767 178.77 266.831 178.766C266.896 178.763 266.961 178.772 267.022 178.793L277.988 182.606C278.049 182.627 278.105 182.66 278.154 182.703C278.202 182.746 278.242 182.798 278.27 182.856C278.298 182.914 278.315 182.978 278.319 183.042C278.323 183.107 278.314 183.172 278.292 183.233C278.271 183.294 278.238 183.35 278.195 183.399C278.151 183.447 278.099 183.486 278.041 183.514C277.982 183.542 277.919 183.559 277.854 183.562C277.789 183.566 277.725 183.557 277.663 183.535Z" fill="#CCCCCC"/>
<path d="M275.61 189.422L264.644 185.609C264.521 185.566 264.42 185.476 264.363 185.359C264.306 185.241 264.298 185.106 264.341 184.983C264.384 184.859 264.474 184.758 264.592 184.701C264.71 184.645 264.845 184.637 264.969 184.68L275.934 188.492C275.995 188.513 276.052 188.546 276.1 188.589C276.149 188.632 276.188 188.684 276.217 188.743C276.245 188.801 276.261 188.864 276.265 188.929C276.269 188.993 276.26 189.058 276.239 189.119C276.217 189.18 276.184 189.236 276.141 189.285C276.098 189.333 276.045 189.372 275.987 189.4C275.929 189.429 275.865 189.445 275.801 189.449C275.736 189.452 275.671 189.443 275.61 189.422Z" fill="#CCCCCC"/>
<path d="M273.557 195.308L262.591 191.496C262.468 191.453 262.366 191.363 262.309 191.245C262.252 191.128 262.245 190.993 262.288 190.869C262.331 190.746 262.421 190.645 262.539 190.588C262.656 190.531 262.792 190.524 262.915 190.566L273.881 194.379C274.004 194.422 274.106 194.512 274.163 194.629C274.219 194.747 274.227 194.882 274.184 195.005C274.141 195.129 274.051 195.23 273.933 195.287C273.816 195.343 273.68 195.351 273.557 195.308Z" fill="#CCCCCC"/>
<path d="M302.738 198.498C302.818 198.307 302.893 198.113 302.962 197.914C303.864 195.331 303.7 192.495 302.507 190.032C301.315 187.569 299.191 185.68 296.603 184.78L292.999 195.112L302.738 198.498Z" fill="#2CA4FF"/>
<path d="M291.95 195.741L295.554 185.409C293.649 184.747 291.592 184.655 289.636 185.146C287.68 185.637 285.911 186.689 284.546 188.172C283.182 189.655 282.282 191.504 281.957 193.491C281.633 195.479 281.898 197.517 282.721 199.356C283.543 201.194 284.886 202.753 286.585 203.838C288.284 204.924 290.264 205.489 292.28 205.465C294.297 205.44 296.263 204.827 297.935 203.701C299.607 202.575 300.912 200.985 301.69 199.127L291.95 195.741Z" fill="#F77765" fill-opacity="0.34"/>
<path d="M304.854 180.919C304.813 180.419 304.882 179.916 305.057 179.446C305.232 178.976 305.508 178.55 305.866 178.198C306.223 177.846 306.654 177.576 307.127 177.408C307.601 177.24 308.105 177.178 308.605 177.226L313.688 166.142L317.05 171.514L311.709 181.216C311.573 182.049 311.135 182.804 310.479 183.337C309.823 183.869 308.994 184.144 308.149 184.107C307.304 184.07 306.502 183.726 305.895 183.138C305.287 182.551 304.917 181.761 304.854 180.919Z" fill="#FFB8B8"/>
<path d="M313.653 177.015C313.34 177.015 313.034 176.92 312.777 176.742L310.377 175.084C310.118 174.904 309.92 174.648 309.811 174.352C309.701 174.056 309.686 173.734 309.766 173.429L312.587 162.792L309.177 143.043C309.173 142.393 309.297 141.749 309.543 141.147C309.789 140.545 310.151 139.998 310.609 139.536C311.066 139.074 311.611 138.706 312.211 138.455C312.811 138.203 313.455 138.072 314.106 138.068C314.757 138.065 315.403 138.19 316.005 138.436C316.608 138.682 317.156 139.044 317.618 139.502C318.08 139.96 318.448 140.504 318.699 141.103C318.951 141.703 319.081 142.346 319.084 142.996L321.878 155.318C322.727 159.058 322.185 162.979 320.355 166.35L315.004 176.212C314.901 176.401 314.759 176.567 314.588 176.698C314.416 176.829 314.219 176.923 314.009 176.973C313.892 177.001 313.773 177.015 313.653 177.015Z" fill="#2CA4FF"/>
<path d="M167.622 233.755L171.812 233.755L173.804 217.624H167.622L167.622 233.755Z" fill="#A0616A"/>
<path d="M166.554 232.39L174.804 232.39H174.804C175.495 232.39 176.178 232.525 176.816 232.789C177.454 233.053 178.034 233.44 178.522 233.927C179.01 234.414 179.397 234.993 179.662 235.63C179.926 236.267 180.062 236.949 180.062 237.638V237.809L166.554 237.809L166.554 232.39Z" fill="white"/>
<path d="M150.879 233.755L155.068 233.755L157.061 217.624H150.878L150.879 233.755Z" fill="#A0616A"/>
<path d="M149.81 232.39L158.06 232.39H158.061C158.751 232.39 159.435 232.525 160.073 232.789C160.71 233.053 161.29 233.44 161.778 233.927C162.267 234.414 162.654 234.993 162.918 235.63C163.182 236.267 163.318 236.949 163.318 237.638V237.809L149.81 237.809L149.81 232.39Z" fill="white"/>
<path d="M168.458 122.076C173.093 122.076 176.851 118.325 176.851 113.698C176.851 109.071 173.093 105.319 168.458 105.319C163.823 105.319 160.065 109.071 160.065 113.698C160.065 118.325 163.823 122.076 168.458 122.076Z" fill="#A0616A"/>
<path d="M174.102 230.274H166.328C166.125 230.274 165.923 230.234 165.735 230.156C165.548 230.077 165.377 229.963 165.234 229.818C165.091 229.673 164.979 229.502 164.902 229.314C164.826 229.125 164.788 228.924 164.791 228.721L165.242 191.868C165.244 191.737 165.195 191.61 165.106 191.514C165.017 191.418 164.895 191.36 164.764 191.351C164.633 191.342 164.504 191.384 164.403 191.467C164.302 191.551 164.237 191.67 164.221 191.8L159.697 228.925C159.651 229.297 159.471 229.639 159.189 229.888C158.908 230.137 158.546 230.274 158.17 230.274H150.321C150.109 230.274 149.9 230.231 149.705 230.146C149.511 230.061 149.336 229.937 149.192 229.782C149.048 229.626 148.938 229.443 148.869 229.243C148.799 229.043 148.772 228.831 148.788 228.62L153.971 162.415L154.112 162.399L178.93 159.724L175.638 228.812C175.62 229.206 175.45 229.578 175.164 229.851C174.878 230.123 174.498 230.275 174.102 230.274Z" fill="#4D4C5A"/>
<path d="M154.273 166.479C153.874 166.478 153.492 166.323 153.206 166.045C152.92 165.768 152.753 165.39 152.741 164.992C152.605 160.806 152.373 146.321 155.072 135.687C155.809 132.782 157.462 130.191 159.787 128.297C162.113 126.402 164.988 125.305 167.986 125.167C170.937 125.006 173.865 125.777 176.352 127.371C178.84 128.964 180.762 131.299 181.845 134.045C186.382 145.542 190.668 159.713 185.324 161.936C178.321 164.849 159.859 166.148 154.367 166.476C154.336 166.478 154.304 166.479 154.273 166.479Z" fill="#CCCCCC"/>
<path d="M186.35 105.229C186.482 105.364 186.624 105.489 186.776 105.602L185.895 122.497L182.23 124.37L184.339 130.26L191.149 127.574C191.699 127.357 192.164 126.968 192.473 126.465C192.783 125.961 192.921 125.371 192.866 124.783L191.082 105.619C191.666 105.184 192.103 104.582 192.336 103.893C192.569 103.204 192.586 102.461 192.385 101.762C192.184 101.063 191.775 100.441 191.212 99.98C190.648 99.5189 189.958 99.2399 189.232 99.1801C188.506 99.1203 187.779 99.2826 187.148 99.6453C186.516 100.008 186.011 100.554 185.698 101.211C185.385 101.867 185.28 102.604 185.396 103.321C185.513 104.039 185.845 104.705 186.35 105.229Z" fill="#A0616A"/>
<path d="M185.964 123.126L188.542 130.44C188.616 130.648 188.643 130.869 188.623 131.089C188.603 131.308 188.536 131.521 188.426 131.713C188.316 131.904 188.166 132.069 187.986 132.198C187.806 132.326 187.601 132.414 187.384 132.456L179.783 133.926C178.714 134.294 177.543 134.225 176.525 133.733C175.508 133.24 174.727 132.366 174.355 131.3C173.983 130.234 174.049 129.064 174.54 128.047C175.03 127.03 175.905 126.249 176.971 125.874L183.796 122.278C183.992 122.175 184.207 122.115 184.428 122.103C184.649 122.091 184.869 122.126 185.075 122.206C185.281 122.287 185.467 122.411 185.62 122.569C185.774 122.728 185.891 122.918 185.964 123.126V123.126Z" fill="#CCCCCC"/>
<path d="M149.997 105.229C149.865 105.364 149.723 105.489 149.571 105.602L150.452 122.497L154.117 124.37L152.008 130.26L145.198 127.574C144.648 127.357 144.183 126.968 143.873 126.465C143.564 125.961 143.426 125.371 143.48 124.783L145.265 105.619C144.681 105.184 144.243 104.582 144.011 103.893C143.778 103.204 143.761 102.461 143.962 101.762C144.163 101.063 144.572 100.441 145.135 99.98C145.698 99.5189 146.389 99.2399 147.115 99.1801C147.841 99.1203 148.568 99.2826 149.199 99.6453C149.83 100.008 150.336 100.554 150.649 101.211C150.962 101.867 151.067 102.604 150.95 103.321C150.834 104.039 150.501 104.705 149.997 105.229H149.997Z" fill="#A0616A"/>
<path d="M151.272 122.207C151.478 122.126 151.698 122.091 151.919 122.103C152.14 122.115 152.355 122.175 152.55 122.278L159.375 125.875C160.442 126.249 161.316 127.03 161.807 128.047C162.297 129.064 162.364 130.234 161.992 131.3C161.619 132.366 160.839 133.241 159.822 133.733C158.804 134.225 157.633 134.295 156.564 133.926L148.963 132.456C148.746 132.414 148.54 132.326 148.361 132.198C148.181 132.07 148.031 131.904 147.921 131.713C147.811 131.521 147.744 131.309 147.724 131.089C147.704 130.869 147.731 130.648 147.804 130.44L150.382 123.126C150.456 122.918 150.573 122.728 150.727 122.569C150.88 122.411 151.066 122.287 151.272 122.207Z" fill="#CCCCCC"/>
<path d="M171.718 115.126C171.674 114.057 171.943 112.999 172.491 112.08C173.04 111.161 173.845 110.421 174.807 109.952C177.359 108.637 178.961 105.832 178.259 103.272C177.36 99.9937 172.891 97.8678 169.27 98.9956C168.29 99.3429 167.345 99.7814 166.448 100.305L164.082 101.571C163.071 102.076 162.097 102.65 161.166 103.29C159.771 104.316 158.678 105.697 158 107.289C157.323 108.881 157.086 110.625 157.315 112.34C157.78 115.672 159.966 118.728 162.959 120.821C164.103 121.675 165.425 122.261 166.826 122.537C168.261 122.773 169.858 122.505 170.906 121.614C172.545 120.223 172.376 117.892 171.846 115.946C171.776 115.678 171.733 115.403 171.718 115.126Z" fill="#2F2E41"/>
<path d="M94.2809 175.769L40.7088 197.709C39.7888 198.085 38.7571 198.081 37.84 197.698C36.923 197.315 36.1955 196.585 35.8172 195.667L19.418 155.761C19.1423 155.088 19.1453 154.333 19.4263 153.662C19.7072 152.992 20.2432 152.46 20.9166 152.183L76.2997 129.501C76.9854 129.221 77.7543 129.224 78.4378 129.509C79.1212 129.795 79.6634 130.339 79.9454 131.023L96.3266 170.885C96.7028 171.804 96.6987 172.834 96.3152 173.749C95.9317 174.665 95.2001 175.391 94.2809 175.769Z" fill="#E6E6E6"/>
<path d="M42.6493 192.869L89.4944 173.683C90.3864 173.318 91.0966 172.614 91.4686 171.726C91.8406 170.837 91.844 169.838 91.478 168.948L78.2357 136.724C78.0545 136.283 77.7881 135.882 77.4516 135.543C77.1152 135.205 76.7153 134.937 76.2749 134.753C75.8344 134.569 75.362 134.473 74.8845 134.472C74.4071 134.47 73.9341 134.562 73.4923 134.743L26.6473 153.929C26.2056 154.11 25.8039 154.376 25.4652 154.712C25.1264 155.047 24.8573 155.447 24.6731 155.886C24.4889 156.326 24.3932 156.798 24.3916 157.274C24.39 157.751 24.4824 158.223 24.6636 158.664L37.9059 190.888C38.0871 191.329 38.3536 191.73 38.69 192.068C39.0265 192.407 39.4263 192.675 39.8668 192.859C40.3073 193.043 40.7797 193.139 41.2571 193.14C41.7345 193.142 42.2076 193.049 42.6493 192.869Z" fill="white"/>
<path d="M77.9768 145.512L77.2881 145.794L77.3352 145.909L78.0239 145.626L77.9768 145.512Z" fill="#E6E6E6"/>
<path d="M75.9437 146.479L74.5524 147.049L74.5053 146.934L75.8966 146.364L75.9437 146.479ZM73.161 147.619L71.7697 148.188L71.7226 148.074L73.1139 147.504L73.161 147.619ZM70.3783 148.758L68.987 149.328L68.9399 149.213L70.3312 148.644L70.3783 148.758ZM67.5956 149.898L66.2043 150.468L66.1572 150.353L67.5485 149.783L67.5956 149.898ZM64.8129 151.038L63.4216 151.607L63.3745 151.493L64.7658 150.923L64.8129 151.038ZM62.0302 152.177L60.6388 152.747L60.5917 152.632L61.9831 152.063L62.0302 152.177ZM59.2475 153.317L57.8561 153.887L57.809 153.772L59.2004 153.202L59.2475 153.317ZM56.4648 154.457L55.0734 155.026L55.0263 154.912L56.4177 154.342L56.4648 154.457ZM53.6821 155.596L52.2907 156.166L52.2436 156.051L53.635 155.482L53.6821 155.596ZM50.8994 156.736L49.508 157.306L49.4609 157.191L50.8523 156.621L50.8994 156.736ZM48.1166 157.876L46.7253 158.445L46.6782 158.331L48.0696 157.761L48.1166 157.876ZM45.3339 159.015L43.9426 159.585L43.8955 159.47L45.2868 158.901L45.3339 159.015ZM42.5512 160.155L41.1599 160.725L41.1128 160.61L42.5041 160.04L42.5512 160.155ZM39.7685 161.295L38.3772 161.864L38.3301 161.75L39.7214 161.18L39.7685 161.295ZM36.9858 162.434L35.5945 163.004L35.5474 162.889L36.9387 162.32L36.9858 162.434ZM34.2031 163.574L32.8117 164.144L32.7646 164.029L34.156 163.459L34.2031 163.574Z" fill="#E6E6E6"/>
<path d="M31.3733 164.599L30.6846 164.881L30.7317 164.995L31.4204 164.713L31.3733 164.599Z" fill="#E6E6E6"/>
<path d="M59.7434 165.43L59.0547 165.712L59.1018 165.827L59.7905 165.544L59.7434 165.43Z" fill="#E6E6E6"/>
<path d="M57.7309 166.388L56.3603 166.949L56.3132 166.835L57.6839 166.273L57.7309 166.388ZM54.9896 167.511L53.6189 168.072L53.5718 167.958L54.9425 167.396L54.9896 167.511ZM52.2482 168.633L50.8775 169.195L50.8304 169.08L52.2011 168.519L52.2482 168.633ZM49.5068 169.756L48.1361 170.318L48.089 170.203L49.4597 169.642L49.5068 169.756ZM46.7655 170.879L45.3947 171.44L45.3476 171.326L46.7184 170.764L46.7655 170.879ZM44.0241 172.002L42.6534 172.563L42.6063 172.449L43.977 171.887L44.0241 172.002ZM41.2827 173.124L39.912 173.686L39.8649 173.571L41.2356 173.01L41.2827 173.124ZM38.5413 174.247L37.1706 174.809L37.1235 174.694L38.4942 174.133L38.5413 174.247Z" fill="#E6E6E6"/>
<path d="M35.7532 175.255L35.0645 175.537L35.1115 175.652L35.8003 175.37L35.7532 175.255Z" fill="#E6E6E6"/>
<path d="M48.385 175.972L47.6963 176.254L47.7434 176.369L48.4321 176.086L48.385 175.972Z" fill="#E6E6E6"/>
<path d="M46.3336 176.947L44.9234 177.524L44.8763 177.41L46.2865 176.832L46.3336 176.947ZM43.5131 178.102L42.1029 178.679L42.0558 178.565L43.466 177.987L43.5131 178.102ZM40.6927 179.257L39.2824 179.834L39.2354 179.72L40.6456 179.142L40.6927 179.257Z" fill="#E6E6E6"/>
<path d="M37.825 180.297L37.1362 180.579L37.1833 180.694L37.872 180.412L37.825 180.297Z" fill="#E6E6E6"/>
<path d="M51.9211 184.576L51.2324 184.858L51.2795 184.973L51.9682 184.691L51.9211 184.576Z" fill="#E6E6E6"/>
<path d="M49.8693 185.551L48.459 186.129L48.4119 186.014L49.8222 185.437L49.8693 185.551ZM47.0488 186.706L45.6385 187.284L45.5915 187.169L47.0017 186.592L47.0488 186.706ZM44.2283 187.861L42.8181 188.439L42.771 188.324L44.1812 187.747L44.2283 187.861Z" fill="#E6E6E6"/>
<path d="M41.3606 188.902L40.6719 189.184L40.719 189.298L41.4077 189.016L41.3606 188.902Z" fill="#E6E6E6"/>
<path d="M44.6387 187.796L84.3367 171.537C85.2974 171.143 86.0621 170.383 86.463 169.427C86.8638 168.47 86.8681 167.393 86.4748 166.433L78.454 146.915L78.3764 146.949L68.6346 170.203L61.4093 167.188C61.276 167.132 61.1314 167.107 60.9871 167.116C60.8427 167.125 60.7023 167.167 60.577 167.24C60.3889 167.353 60.2433 167.524 60.1629 167.728L55.0573 179.914L49.7746 177.71C49.6606 177.662 49.5383 177.637 49.4147 177.637C49.2912 177.636 49.1687 177.66 49.0544 177.707C48.9401 177.754 48.8361 177.823 48.7484 177.91C48.6608 177.997 48.5911 178.1 48.5435 178.214C48.5097 178.297 45.2524 186.275 44.6387 187.796Z" fill="#2CA4FF"/>
<path d="M44.5158 187.98L44.4014 187.932L48.4863 178.181C48.5945 177.923 48.8005 177.719 49.0592 177.613C49.3179 177.507 49.6081 177.508 49.8661 177.616L55.0446 179.778L60.121 167.659C60.2292 167.402 60.4352 167.198 60.6939 167.092C60.9526 166.986 61.2428 166.986 61.5008 167.094L68.6218 170.067L78.4137 146.691L78.5282 146.739L68.6884 170.229L61.453 167.208C61.3402 167.161 61.2193 167.137 61.0971 167.136C60.9749 167.136 60.8538 167.159 60.7408 167.206C60.6277 167.252 60.5249 167.32 60.4382 167.406C60.3515 167.492 60.2826 167.594 60.2355 167.707L55.1111 179.94L49.8183 177.73C49.5906 177.635 49.3345 177.635 49.1063 177.728C48.878 177.821 48.6963 178.002 48.6008 178.229L44.5158 187.98Z" fill="#3F3D56"/>
<path d="M48.409 176.897C48.8887 176.897 49.2775 176.509 49.2775 176.03C49.2775 175.551 48.8887 175.163 48.409 175.163C47.9294 175.163 47.5405 175.551 47.5405 176.03C47.5405 176.509 47.9294 176.897 48.409 176.897Z" fill="#3F3D56"/>
<path d="M59.7669 166.354C60.2466 166.354 60.6354 165.966 60.6354 165.487C60.6354 165.008 60.2466 164.62 59.7669 164.62C59.2873 164.62 58.8984 165.008 58.8984 165.487C58.8984 165.966 59.2873 166.354 59.7669 166.354Z" fill="#3F3D56"/>
<path d="M77.4525 146.406C77.9321 146.406 78.321 146.018 78.321 145.539C78.321 145.06 77.9321 144.672 77.4525 144.672C76.9728 144.672 76.584 145.06 76.584 145.539C76.584 146.018 76.9728 146.406 77.4525 146.406Z" fill="#3F3D56"/>
<path d="M28.8406 175.046C29.2921 174.822 29.6888 174.501 30.0028 174.108C30.3169 173.714 30.5406 173.256 30.6582 172.766C30.7758 172.277 30.7844 171.767 30.6835 171.274C30.5826 170.781 30.3746 170.316 30.0741 169.911L32.6535 144.734H27.0791L25.0292 169.318C24.3823 169.867 23.9595 170.634 23.8411 171.473C23.7226 172.313 23.9167 173.166 24.3865 173.872C24.8563 174.578 25.5692 175.088 26.3901 175.304C27.211 175.52 28.0829 175.429 28.8406 175.046Z" fill="#E9B8A9"/>
<path d="M33.9589 130.839C38.3146 130.839 41.8456 127.314 41.8456 122.966C41.8456 118.618 38.3146 115.093 33.9589 115.093C29.6032 115.093 26.0723 118.618 26.0723 122.966C26.0723 127.314 29.6032 130.839 33.9589 130.839Z" fill="#E9B8A9"/>
<path d="M35.4438 159.397C35.1281 159.397 34.8212 159.293 34.5701 159.102C34.319 158.911 34.1376 158.643 34.0538 158.339C33.4219 156.047 31.778 152.172 29.1677 146.822C28.5788 145.612 28.2526 144.292 28.2107 142.947C28.1688 141.603 28.412 140.265 28.9245 139.021C29.4369 137.778 30.207 136.656 31.1842 135.73C32.1614 134.804 33.3237 134.095 34.5947 133.65C35.7992 133.225 37.0767 133.046 38.3517 133.123C39.6268 133.2 40.8734 133.531 42.0178 134.098C43.1623 134.664 44.1813 135.454 45.0147 136.42C45.848 137.387 46.4787 138.51 46.8695 139.724C48.8927 146.057 48.795 152.84 48.6591 155.462C48.6422 155.778 48.5221 156.079 48.3171 156.32C48.1122 156.562 47.8337 156.729 47.5243 156.797L35.7537 159.363C35.652 159.385 35.548 159.397 35.4438 159.397Z" fill="#2CA4FF"/>
<path d="M46.8425 234.161H50.779L52.6519 219.002L46.8418 219.002L46.8425 234.161Z" fill="#E9B8A9"/>
<path d="M58.3711 237.809L45.9987 237.809L45.9985 233.037L53.5906 233.037C54.2184 233.037 54.84 233.16 55.42 233.4C55.9999 233.64 56.5269 233.991 56.9708 234.434C57.4147 234.877 57.7669 235.403 58.0071 235.982C58.2474 236.561 58.3711 237.182 58.3711 237.809Z" fill="white"/>
<path d="M7.47754 229.067L10.9274 230.96L19.8843 218.578L14.7932 215.783L7.47754 229.067Z" fill="#E9B8A9"/>
<path d="M15.8193 237.81L4.97743 231.859L7.28039 227.677L13.9334 231.329C15.0444 231.938 15.8672 232.964 16.2209 234.179C16.5746 235.395 16.4301 236.7 15.8193 237.81Z" fill="white"/>
<path d="M46.6582 225.746C46.3074 225.746 45.9687 225.618 45.7053 225.387C45.4419 225.156 45.2718 224.837 45.2267 224.489L40.3034 186.616C40.2816 186.448 40.2074 186.292 40.0913 186.169C39.9752 186.046 39.8232 185.963 39.6569 185.931C39.4907 185.9 39.3187 185.922 39.1656 185.993C39.0125 186.065 38.886 186.184 38.8043 186.332L18.2862 223.495C18.1169 223.798 17.8441 224.031 17.5175 224.15C17.1909 224.27 16.8321 224.269 16.5064 224.147L12.0341 222.446C11.8542 222.377 11.6898 222.273 11.5506 222.141C11.4114 222.008 11.3001 221.849 11.2233 221.673C11.1466 221.496 11.1059 221.307 11.1036 221.115C11.1013 220.922 11.1376 220.732 11.2101 220.554L25.4236 185.697C25.4596 185.608 25.484 185.516 25.4962 185.421C27.4213 170.546 32.3195 162.981 33.7748 161.017C33.8811 160.873 33.951 160.705 33.9788 160.528C34.0065 160.351 33.9911 160.17 33.934 160L33.734 159.401C33.654 159.163 33.6377 158.909 33.6864 158.662C33.7352 158.416 33.8474 158.187 34.012 157.998C39.2561 152.035 48.3963 155.289 48.488 155.322L48.5338 155.339L48.5625 155.378C58.8113 169.41 55.022 214.985 54.1583 223.978C54.1261 224.316 53.9751 224.632 53.7322 224.869C53.4893 225.107 53.17 225.251 52.8308 225.276L46.7705 225.742C46.7328 225.745 46.6954 225.746 46.6582 225.746Z" fill="#4D4C5A"/>
<path d="M64.6195 132.112C64.5801 132.285 64.5544 132.461 64.5427 132.638L50.7488 140.582L47.3961 138.655L43.8218 143.327L49.4252 147.314C49.8778 147.636 50.423 147.802 50.9787 147.789C51.5344 147.775 52.0708 147.582 52.5072 147.239L66.731 136.036C67.3729 136.274 68.072 136.31 68.7351 136.141C69.3983 135.972 69.9943 135.605 70.4436 135.09C70.893 134.574 71.1745 133.934 71.2508 133.255C71.327 132.576 71.1944 131.89 70.8705 131.288C70.5466 130.686 70.0467 130.197 69.4375 129.886C68.8283 129.574 68.1385 129.455 67.4599 129.545C66.7813 129.634 66.146 129.928 65.6387 130.386C65.1313 130.845 64.7758 131.447 64.6195 132.112Z" fill="#E9B8A9"/>
<path d="M50.2875 140.959L45.8294 146.727C45.7026 146.891 45.5418 147.026 45.358 147.122C45.1742 147.219 44.9718 147.275 44.7644 147.286C44.5571 147.297 44.3497 147.264 44.1565 147.188C43.9633 147.112 43.7887 146.995 43.6446 146.846L38.5977 141.614C37.7603 140.962 37.2163 140.004 37.085 138.952C36.9537 137.899 37.2458 136.838 37.8972 136C38.5487 135.162 39.5063 134.616 40.5602 134.482C41.6141 134.348 42.6782 134.637 43.5192 135.285L49.8491 138.819C50.0303 138.92 50.1875 139.059 50.3101 139.226C50.4326 139.393 50.5176 139.585 50.5592 139.788C50.6008 139.991 50.5981 140.201 50.5512 140.403C50.5043 140.605 50.4144 140.794 50.2875 140.959Z" fill="#2CA4FF"/>
<path d="M33.0086 150.98L25.8269 149.685C25.6225 149.648 25.4285 149.568 25.2581 149.45C25.0877 149.331 24.9448 149.178 24.8393 148.999C24.7337 148.82 24.668 148.621 24.6464 148.415C24.6249 148.209 24.6482 148.001 24.7146 147.804L27.0428 140.923C27.2375 139.88 27.8384 138.957 28.7137 138.356C29.5891 137.755 30.6675 137.525 31.7125 137.716C32.7575 137.908 33.6837 138.505 34.2882 139.377C34.8926 140.25 35.1258 141.326 34.9368 142.369L34.7096 149.606C34.7031 149.813 34.6518 150.016 34.5595 150.202C34.4671 150.388 34.3357 150.551 34.1743 150.682C34.0128 150.812 33.8252 150.906 33.624 150.958C33.4229 151.009 33.213 151.017 33.0086 150.98H33.0086Z" fill="#FF6584"/>
<path d="M35.2073 121.155C37.2344 122.54 39.8959 123.964 41.9662 122.489C42.6138 121.997 43.0843 121.308 43.3072 120.527C43.5301 119.745 43.4934 118.912 43.2027 118.153C42.2113 115.323 39.4877 114.077 36.8832 113.122C33.4973 111.881 29.8106 110.893 26.3153 111.782C22.8199 112.671 19.7308 116.05 20.3618 119.595C20.8692 122.446 23.5632 124.819 23.1808 127.689C22.7959 130.578 19.5414 132.099 16.6683 132.615C13.7951 133.131 10.58 133.297 8.51521 135.358C5.88116 137.986 6.53893 142.683 9.01746 145.458C11.496 148.233 15.2362 149.491 18.8605 150.346C23.6625 151.479 28.8562 152.074 33.4169 150.194C37.9775 148.314 41.5266 143.253 40.2054 138.507C39.6474 136.502 38.3328 134.808 37.0623 133.158C35.7918 131.509 34.5053 129.784 34.0207 127.76C33.6168 126.074 33.9157 124.116 35.0359 122.851C35.2397 122.63 35.3679 122.349 35.4022 122.051C35.4365 121.752 35.3751 121.45 35.2268 121.188L35.2073 121.155Z" fill="#2F2E41"/>
<g clip-path="url(#clip0_204_874)">
<path d="M163.687 24.1284C163.687 23.5578 163.164 22.9518 162.258 22.9518C161.241 22.9518 160.124 23.7427 159.953 25.3207C159.779 26.9144 160.714 27.6227 161.657 27.6227C162.6 27.6227 163.093 27.2332 163.598 26.7137C163.164 26.1353 162.603 26.4029 162.496 26.4619C162.377 26.5248 162.225 26.6114 161.913 26.6114C161.549 26.6114 161.178 26.4383 161.178 25.7182C163.509 25.4742 163.687 24.699 163.687 24.1284ZM162.533 24.2228C162.518 24.3999 162.451 24.7029 161.271 24.8721C161.519 23.9356 161.995 23.8647 162.214 23.8647C162.418 23.8647 162.548 24.0339 162.533 24.2228ZM158.584 24.3763C158.584 24.3763 158.083 26.0448 158.042 26.1825C158.027 26.0408 157.66 23.0462 157.66 23.0462C156.806 23.0462 156.349 23.6916 156.108 24.3724C156.108 24.3724 155.499 26.0448 155.447 26.1864C155.444 26.0566 155.355 24.392 155.355 24.392C155.303 23.5578 154.583 23.0502 154 23.0502L154.705 27.5873C155.6 27.5834 156.082 26.942 156.335 26.2612C156.335 26.2612 156.873 24.7855 156.895 24.7186C156.899 24.7816 157.281 27.5873 157.281 27.5873C158.179 27.5873 158.662 26.9852 158.921 26.3281L160.18 23.0502C159.293 23.0502 158.825 23.6916 158.584 24.3763ZM166.983 22.9439C166.43 22.9439 166.007 23.2627 165.65 23.7309V23.727L165.97 21C165.235 21 164.637 21.6768 164.522 22.6842L163.965 27.5519C164.388 27.5519 164.838 27.422 165.079 27.0915C165.294 27.3866 165.617 27.6227 166.096 27.6227C167.335 27.6227 168.185 26.0959 168.185 24.6636C168.178 23.3571 167.58 22.9439 166.983 22.9439ZM166.868 25.2853C166.738 26.0841 166.318 26.6272 165.914 26.6272C165.506 26.6272 165.331 26.4343 165.331 26.4343C165.409 25.7339 165.457 25.305 165.606 24.9351C165.754 24.5652 166.107 23.9749 166.474 23.9749C166.834 23.9749 166.998 24.4825 166.868 25.2853ZM171.281 23.0502H170.416L170.42 23.003C170.479 22.4048 170.613 22.09 171.054 22.0389C171.355 22.0074 171.489 21.8421 171.522 21.6611C171.548 21.5194 171.63 21.0275 171.63 21.0275C169.893 21.0157 169.347 21.8106 169.206 23.0226L169.202 23.0502H169.184C168.902 23.0502 168.59 23.3886 168.538 23.8175L168.519 23.9749H169.098L168.612 28.2327L168.464 28.9961C168.482 28.9961 168.505 29 168.523 29C169.336 28.9685 169.855 28.2878 169.971 27.3L170.349 23.9749H170.62C170.887 23.9749 171.199 23.6916 171.255 23.2194L171.281 23.0502ZM175.779 22.9715C174.781 22.9715 173.838 23.7506 173.548 24.9744C173.259 26.1982 173.697 27.6463 175.167 27.6463C176.633 27.6463 177.479 26.1392 177.479 24.8839C177.479 23.6365 176.681 22.9715 175.779 22.9715ZM176.184 25.2459C176.132 25.8008 175.902 26.6429 175.271 26.6429C174.636 26.6429 174.725 25.6591 174.788 25.1909C174.855 24.6911 175.118 23.9788 175.686 23.9788C176.195 23.9788 176.243 24.6203 176.184 25.2459ZM182.411 24.3763C182.411 24.3763 181.91 26.0448 181.87 26.1825C181.855 26.0408 181.487 23.0462 181.487 23.0462C180.634 23.0462 180.177 23.6916 179.936 24.3724C179.936 24.3724 179.327 26.0448 179.275 26.1864C179.272 26.0566 179.182 24.392 179.182 24.392C179.131 23.5578 178.41 23.0502 177.828 23.0502L178.529 27.5873C179.424 27.5834 179.906 26.942 180.159 26.2612C180.159 26.2612 180.697 24.7855 180.715 24.7186C180.723 24.7816 181.101 27.5873 181.101 27.5873C182 27.5873 182.482 26.9852 182.742 26.3281L184 23.0502C183.117 23.0502 182.649 23.6916 182.411 24.3763ZM172.097 21.0275L171.37 27.2489L171.221 28.0162C171.24 28.0162 171.262 28.0202 171.281 28.0202C172.064 28.0084 172.621 27.2804 172.724 26.3635L173.144 22.7944C173.27 21.7044 172.658 21.0275 172.097 21.0275Z" fill="#2CA4FF"/>
</g>
<defs>
<clipPath id="clip0_204_874">
<rect width="30" height="8" fill="white" transform="translate(154 21)"/>
</clipPath>
</defs>
</svg>
